/* XPM */
static char *result[] = {
/* columns rows colors chars-per-pixel */
"64 64 3 1 ",
"  c none",
". c white",
"X c red",
/* pixels */
"X                     ....................                     X",
"                      ....................                      ",
"                      ....................                      ",
"                      ....................                      ",
"                      ....................                      ",
"                      ....................                      ",
"                      ....................                      ",
"                      ....................                      ",
"                       ..................                       ",
"                       ..................                       ",
"                        ................                        ",
"                         ..............                         ",
"                           ..........                           ",
"                             ......                             ",
"                                                                ",
"                                                                ",
"                                                                ",
"                                                                ",
"                                                                ",
"                                                                ",
"                                                                ",
"                                                                ",
"                                                                ",
"                                                                ",
"                                                                ",
"                                                                ",
"                                                                ",
"                                                                ",
"                                                                ",
"                                                                ",
"                                                                ",
"                                                                ",
"                                                                ",
"                                                                ",
"                                                                ",
"                                                                ",
"                                                                ",
"                                                                ",
"                                                                ",
"                                                                ",
"                                                                ",
"                                                                ",
"                                                                ",
"                                                                ",
"                                                                ",
"                                                                ",
"                                                                ",
"                                                                ",
"                                                                ",
"                                                                ",
"                             ......                             ",
"                           ..........                           ",
"                         ..............                         ",
"                        ................                        ",
"                       ..................                       ",
"                       ..................                       ",
"                      ....................                      ",
"                      ....................                      ",
"                      ....................                      ",
"                      ....................                      ",
"                      ....................                      ",
"                      ....................                      ",
"                      ....................                      ",
"X                     ....................                     X"
};
